<svg xmlns="http://www.w3.org/2000/svg" width="273" height="60" fill="none"><path fill="#093317" d="M253.645 59.605v-.613h4.094v.613zm0-7.644v-.614h4.094v.614zm0 3.421v-.613h3.858v.613zm-.342-4.035h.649v8.258h-.649zM246.291 55.665h.719l2.82 3.94h-.802zm-1.404-4.318h.649v8.258h-.649zm.342.578v-.578h1.545q.803 0 1.428.283.637.284 1.003.814.365.531.365 1.298 0 .755-.365 1.298a2.3 2.3 0 0 1-1.003.826q-.625.27-1.428.271h-1.545v-.578h1.545q.626 0 1.109-.2a1.7 1.7 0 0 0 .767-.614q.272-.413.272-1.003t-.284-.99a1.7 1.7 0 0 0-.755-.614 2.7 2.7 0 0 0-1.109-.212zM235.806 56.833l.213-.614h3.81l.212.614zm2.1-4.306-1.604 3.905-.071.141-1.239 3.032h-.731l3.645-8.576 3.645 8.576h-.731l-1.227-2.984-.059-.154zM225.225 55.476q0 1.05.449 1.852.448.803 1.203 1.263t1.687.46q.59 0 1.073-.13a2.9 2.9 0 0 0 .873-.39q.402-.259.708-.613v.873a3.7 3.7 0 0 1-1.132.696q-.614.224-1.522.224a4.2 4.2 0 0 1-1.605-.306 3.9 3.9 0 0 1-1.274-.885 4.1 4.1 0 0 1-.849-1.345 4.6 4.6 0 0 1-.307-1.699q0-.92.307-1.698.308-.78.849-1.345a3.8 3.8 0 0 1 1.274-.873 4 4 0 0 1 1.605-.319q.908 0 1.522.236.613.225 1.132.684v.862a3 3 0 0 0-.708-.602 3.1 3.1 0 0 0-.884-.39 4 4 0 0 0-1.062-.13q-.932 0-1.687.46a3.3 3.3 0 0 0-1.203 1.251q-.449.803-.449 1.864M214.352 51.347h.649v8.577l-6.276-7.208v6.89h-.649v-8.577l6.276 7.231zM199.875 59.605v-.613h4.094v.613zm0-7.644v-.614h4.094v.614zm0 3.421v-.613h3.858v.613zm-.342-4.035h.649v8.258h-.649zM189.481 51.347h.649v8.258h-.649zm2.241 8.258h-1.887v-.648h1.887a3.8 3.8 0 0 0 1.392-.248 3.1 3.1 0 0 0 1.086-.696q.447-.46.684-1.097a4 4 0 0 0 .247-1.44q0-.79-.247-1.427a3 3 0 0 0-.684-1.097 3 3 0 0 0-1.086-.708 3.8 3.8 0 0 0-1.392-.248h-1.887v-.649h1.887q1.203 0 2.112.52.92.52 1.427 1.45.519.921.519 2.16 0 1.238-.519 2.17a3.64 3.64 0 0 1-1.427 1.44q-.909.518-2.112.518M182.468 55.665h.72l2.819 3.94h-.802zm-1.404-4.318h.649v8.258h-.649zm.343.578v-.578h1.545q.803 0 1.427.283.637.284 1.003.814.366.531.366 1.298 0 .755-.366 1.298a2.3 2.3 0 0 1-1.003.826q-.624.27-1.427.271h-1.545v-.578h1.545q.625 0 1.109-.2.495-.213.767-.614.271-.413.271-1.003t-.283-.99a1.73 1.73 0 0 0-.755-.614 2.7 2.7 0 0 0-1.109-.212zM171.984 56.833l.212-.614h3.811l.212.614zm2.1-4.306-1.605 3.905-.07.141-1.239 3.032h-.732l3.646-8.576 3.645 8.576h-.731l-1.227-2.984-.059-.154zM164.195 56.102v-.614h3.669a5 5 0 0 1-.259 1.605 4.1 4.1 0 0 1-.767 1.344 3.7 3.7 0 0 1-1.227.932q-.72.343-1.628.343-.885 0-1.64-.307a4.1 4.1 0 0 1-1.309-.885 4 4 0 0 1-.862-1.345 4.6 4.6 0 0 1-.306-1.699q0-.92.306-1.698a4 4 0 0 1 .862-1.345 4 4 0 0 1 1.309-.873 4.2 4.2 0 0 1 1.64-.319q.767 0 1.392.213.637.212 1.132.613.496.39.85.944l-.472.413a3.14 3.14 0 0 0-1.156-1.11q-.744-.423-1.746-.424a3.37 3.37 0 0 0-2.985 1.722q-.448.803-.448 1.864 0 1.05.448 1.864a3.44 3.44 0 0 0 1.227 1.262q.778.46 1.758.46a3.2 3.2 0 0 0 1.25-.235q.554-.237.956-.65.412-.411.661-.943a3.5 3.5 0 0 0 .306-1.132zM144.507 51.347h.649v8.258h-.649zm2.241 8.258h-1.887v-.648h1.887q.768 0 1.393-.248a3.1 3.1 0 0 0 1.085-.696 3.1 3.1 0 0 0 .684-1.097 4 4 0 0 0 .248-1.44q0-.79-.248-1.427a2.95 2.95 0 0 0-.684-1.097 3 3 0 0 0-1.085-.708 3.8 3.8 0 0 0-1.393-.248h-1.887v-.649h1.887q1.204 0 2.112.52.92.52 1.428 1.45.519.921.519 2.16 0 1.238-.519 2.17a3.64 3.64 0 0 1-1.428 1.44q-.907.518-2.112.518M139.636 51.347h.649v8.577l-6.276-7.208v6.89h-.649v-8.577l6.276 7.231zM124.28 56.833l.212-.614h3.811l.212.614zm2.1-4.306-1.605 3.905-.071.141-1.238 3.032h-.732l3.646-8.576 3.645 8.576h-.732l-1.226-2.984-.059-.154zM110.356 56.102v-.614h3.669q0 .838-.26 1.605a4.1 4.1 0 0 1-.767 1.344 3.7 3.7 0 0 1-1.227.932q-.719.343-1.627.343-.885 0-1.64-.307a4.1 4.1 0 0 1-1.31-.885 4 4 0 0 1-.861-1.345 4.6 4.6 0 0 1-.307-1.699q0-.92.307-1.698.308-.78.861-1.345a4 4 0 0 1 1.31-.873 4.2 4.2 0 0 1 1.64-.319q.766 0 1.392.213.636.212 1.132.613.496.39.849.944l-.471.413a3.14 3.14 0 0 0-1.157-1.11q-.743-.423-1.745-.424a3.37 3.37 0 0 0-2.985 1.722q-.448.803-.448 1.864 0 1.05.448 1.864a3.44 3.44 0 0 0 1.227 1.262q.779.46 1.758.46.695 0 1.25-.235.555-.237.956-.65.412-.411.66-.943a3.5 3.5 0 0 0 .307-1.132zM101.628 51.347h.648v8.577L96 52.716v6.89h-.648v-8.577l6.276 7.231zM90.506 51.347h.649v8.258h-.649zM82.136 51.347h.65v8.258h-.65zm.366.614v-.614h1.569q.78 0 1.38.295.614.295.968.838.353.543.353 1.31 0 .755-.354 1.309-.353.555-.967.85-.6.282-1.38.282H82.5v-.613h1.57q.909 0 1.475-.472t.566-1.357q0-.896-.566-1.356-.567-.472-1.475-.472zM73.056 56.833l.212-.614h3.81l.213.614zm2.1-4.306-1.605 3.905-.07.141-1.24 3.032h-.73l3.645-8.576 3.645 8.576h-.732l-1.227-2.984-.058-.154zM62.475 55.476q0 1.05.448 1.852.449.803 1.203 1.263.756.46 1.687.46.59 0 1.074-.13.483-.13.873-.39.4-.259.708-.613v.873a3.7 3.7 0 0 1-1.133.696q-.613.224-1.522.224a4.2 4.2 0 0 1-1.604-.306 3.9 3.9 0 0 1-1.274-.885 4.1 4.1 0 0 1-.85-1.345 4.6 4.6 0 0 1-.306-1.699q0-.92.306-1.698.307-.78.85-1.345a3.8 3.8 0 0 1 1.274-.873 4 4 0 0 1 1.604-.319q.909 0 1.522.236.615.225 1.133.684v.862a3 3 0 0 0-.708-.602 3.1 3.1 0 0 0-.885-.39 4 4 0 0 0-1.062-.13q-.93 0-1.687.46a3.3 3.3 0 0 0-1.203 1.251q-.448.803-.448 1.864M53.881 57.222q.2.518.484.944.296.425.72.684.424.248 1.014.248.803 0 1.25-.437.461-.447.46-1.132 0-.602-.27-.967a2 2 0 0 0-.708-.59 7 7 0 0 0-.897-.413 11 11 0 0 1-.743-.307 4 4 0 0 1-.708-.448 2.3 2.3 0 0 1-.543-.649q-.2-.378-.2-.908 0-.591.283-1.038.283-.46.79-.708.508-.26 1.145-.26.66 0 1.132.248.484.247.802.625.32.377.484.779l-.566.318a2.5 2.5 0 0 0-.378-.625 1.9 1.9 0 0 0-.601-.507q-.366-.213-.909-.212-.72 0-1.109.377-.39.365-.389.92 0 .46.224.79.225.33.673.602.448.26 1.109.496.342.129.707.318.366.189.661.472.307.283.495.684.19.39.19.932 0 .507-.19.92a2.1 2.1 0 0 1-.507.72 2.3 2.3 0 0 1-.755.46 2.8 2.8 0 0 1-.944.154q-.72 0-1.262-.296a2.74 2.74 0 0 1-.908-.79 4 4 0 0 1-.566-1.073zM43.77 51.347h.65v8.258h-.65zm2.242 8.258h-1.888v-.648h1.888q.767 0 1.392-.248a3.1 3.1 0 0 0 1.085-.696q.45-.46.684-1.097.248-.65.248-1.44a3.9 3.9 0 0 0-.248-1.427 2.95 2.95 0 0 0-.684-1.097 3 3 0 0 0-1.085-.708 3.8 3.8 0 0 0-1.392-.248h-1.888v-.649h1.888q1.203 0 2.112.52a3.6 3.6 0 0 1 1.427 1.45q.52.921.52 2.16 0 1.238-.52 2.17a3.64 3.64 0 0 1-1.427 1.44q-.909.518-2.112.518M38.9 51.347h.648v8.577l-6.276-7.208v6.89h-.648v-8.577L38.9 58.26zM23.543 56.833l.212-.614h3.81l.213.614zm2.1-4.306-1.605 3.905-.07.141-1.239 3.032h-.731l3.645-8.576 3.645 8.576h-.731l-1.227-2.984-.06-.154zM15.065 51.347h.649v7.645h3.41v.613h-4.06zM264.421 31.223q.48 3.57 1.394 7.054.174.566.174 1.176 0 1.96-2.395 1.96-1.35 0-2.09-.741-.697-.74-1.307-2.787l-.043-.174q-1.655 2.047-3.005 2.743-1.306.697-3.048.697-2.656 0-4.398-1.96-1.698-2.002-1.698-5.182 0-3.483 1.48-6.444 1.48-2.962 4.05-4.834a11.9 11.9 0 0 1 5.748-2.308q.828-8.23 3.135-14.326Q264.77 0 268.645 0q1.873 0 3.092 1.698Q273 3.397 273 6.837q0 4.79-2.352 11.191-2.35 6.402-6.227 13.195m3.745-26.955q-1.263 0-2.395 6.444-1.088 6.445-1.48 14.022 4.833-10.45 4.833-16.983 0-1.655-.304-2.569-.262-.915-.654-.914m-12.541 32.485q.871 0 1.655-.653.827-.654 2.09-2.526a48.5 48.5 0 0 1-.435-6.575q0-1.35.043-2.09-2.394.697-3.962 3.178-1.569 2.482-1.568 5.487 0 3.18 2.177 3.179"/><path fill="#093317" d="M230.06 41.15q-1.655 0-2.352-1.74-.653-1.743-.653-5.575 0-5.66 1.611-10.756.392-1.262 1.263-1.829.914-.61 2.526-.61.87 0 1.219.218.348.218.348.828 0 .697-.653 3.135a68 68 0 0 0-.697 3.048q-.261 1.306-.435 3.223 1.437-3.745 3.222-6.097 1.786-2.35 3.484-3.353 1.742-1 3.179-1.001 2.83 0 2.83 2.83 0 1.7-.958 6.14-.827 3.789-.827 5.008 0 1.742 1.263 1.742.87 0 2.046-1.045 1.22-1.089 3.223-3.484.522-.61 1.176-.61.566 0 .87.523.35.522.349 1.437 0 1.742-.828 2.7-1.872 2.307-4.049 3.788-2.135 1.48-4.877 1.48-2.222 0-3.353-1.262-1.133-1.306-1.133-3.745 0-1.22.61-4.354.566-2.744.566-3.789 0-.697-.479-.697-.565 0-1.611 1.48-1.002 1.438-2.09 3.833a31.3 31.3 0 0 0-1.699 5.051q-.478 2.047-1.132 2.787-.609.697-1.959.697"/><path fill="#093317" d="M211.87 41.151q-2.7 0-4.312-1.96-1.611-1.96-1.611-5.138 0-3.483 1.611-6.575 1.612-3.136 4.268-5.008 2.7-1.916 5.704-1.916.959 0 1.263.392.349.348.566 1.306.915-.174 1.916-.174 2.134 0 2.134 1.524 0 .915-.653 4.355-1.002 5.007-1.002 6.967 0 .653.305 1.045.349.392.871.392.827 0 2.003-1.045 1.176-1.089 3.179-3.484.522-.61 1.176-.61.566 0 .871.523.348.522.348 1.437 0 1.742-.827 2.7-1.785 2.22-3.789 3.745-2.003 1.524-3.875 1.524-1.437 0-2.657-.958-1.175-1.002-1.785-2.7-2.265 3.658-5.704 3.658m1.567-4.398q.958 0 1.829-1.132.871-1.133 1.263-3.005l1.611-8.012q-1.829.043-3.396 1.393-1.525 1.306-2.439 3.484a11.8 11.8 0 0 0-.915 4.616q0 1.35.523 2.003.566.653 1.524.653"/><path fill="#093317" d="M209.239 31.223q.567 0 .871.522.348.522.348 1.437 0 1.742-.827 2.7-1.873 2.307-4.093 3.788-2.178 1.48-4.965 1.481-3.831 0-5.704-3.484-1.829-3.483-1.829-9.014 0-5.312 1.35-12.105 1.394-6.795 4.05-11.67Q201.14 0 204.841 0q2.09 0 3.266 1.96 1.22 1.915 1.219 5.53 0 5.181-2.874 12.019-2.874 6.837-7.795 13.542.306 1.785 1.002 2.57.697.74 1.829.74 1.785 0 3.135-1.002 1.35-1.044 3.44-3.527.524-.61 1.176-.61M203.883 4.31q-1.002 0-2.264 3.614-1.264 3.615-2.221 8.97-.958 5.357-1.045 10.278 3.091-5.095 4.92-10.19 1.83-5.139 1.829-9.362 0-3.31-1.219-3.31M148.156 26.607q.957 0 1.611.696.697.653.697 1.655 0 .567-.262 1.22a7.36 7.36 0 0 1-1.959 2.7q-1.263 1.088-2.787 1.088a2.85 2.85 0 0 1-2.09-.871q-.828-.87-.828-2.351 0-.828.087-1.786a9 9 0 0 0 .087-.958q0-.348-.174-.523a.41.41 0 0 0-.348-.174q-.61 0-1.655 1.48-1.045 1.438-2.09 3.833a31 31 0 0 0-1.698 5.051q-.48 2.091-1.089 2.787-.61.697-2.003.697-1.655 0-2.352-1.742-.653-1.742-.653-5.574 0-5.66 1.611-10.756.393-1.262 1.263-1.829.915-.61 2.526-.61.87 0 1.219.218.348.218.348.828 0 .697-.653 3.135a67 67 0 0 0-.696 3.048q-.262 1.306-.436 3.223 1.437-3.745 3.223-6.097 1.785-2.35 3.483-3.353 1.698-1 3.092-1.001 1.262 0 1.916.74.697.697.697 2.09 0 .828-.479 3.136z"/><path fill="#093317" d="M132.889 31.223q.567 0 .871.522.35.522.349 1.437 0 1.742-.828 2.7-1.611 1.96-4.572 3.614a12.5 12.5 0 0 1-6.271 1.655q-4.572 0-7.098-2.482t-2.525-6.793q0-3.005 1.263-5.574 1.262-2.613 3.483-4.137 2.265-1.524 5.095-1.524 2.526 0 4.05 1.524 1.524 1.48 1.524 4.05 0 3.004-2.177 5.182-2.134 2.133-7.273 3.396 1.089 2.004 4.137 2.003 1.96 0 4.442-1.35a15 15 0 0 0 4.355-3.614q.522-.61 1.175-.61m-10.973-6.315q-1.611 0-2.744 1.873-1.088 1.872-1.088 4.529v.087q2.569-.61 4.05-1.83 1.48-1.219 1.48-2.83 0-.827-.479-1.306-.436-.523-1.219-.523"/><path fill="#093317" d="M115.791 31.223q.567 0 .871.522.348.522.348 1.437 0 1.742-.827 2.7a21.7 21.7 0 0 1-3.919 3.745q-2.135 1.524-4.224 1.524-3.31 0-5.051-3.876-1.83 2.309-3.223 3.092-1.35.784-3.179.784-2.656 0-4.398-1.96-1.698-2.002-1.698-5.182 0-3.483 1.48-6.444 1.481-3.006 4.05-4.878a11.86 11.86 0 0 1 5.835-2.264q.828-8.447 3.136-14.414Q107.342 0 111.132 0q1.873 0 3.091 1.698 1.263 1.699 1.263 5.139 0 4.877-2.395 11.409-2.394 6.531-6.401 13.412.174 2.526.74 3.614.61 1.089 1.524 1.089 1.177 0 2.395-1.045 1.22-1.045 3.266-3.484.523-.61 1.176-.61m-5.138-26.955q-.828 0-1.655 2.96-.828 2.918-1.437 7.665a146 146 0 0 0-.827 9.928q4.877-10.624 4.877-17.07 0-1.655-.305-2.569-.261-.915-.653-.914M98.112 36.753q.827 0 1.654-.653.828-.698 2.09-2.526-.435-2.351-.435-5.27 0-1.044.087-3.396-2.395.74-4.006 3.223-1.568 2.438-1.568 5.443 0 3.18 2.178 3.179"/><path fill="#093317" d="M72.546 41.15q-1.655 0-2.351-1.74-.654-1.743-.653-5.575 0-5.66 1.61-10.756.393-1.262 1.263-1.829.915-.61 2.526-.61.87 0 1.22.218.348.218.348.828 0 .697-.653 3.135a67 67 0 0 0-.697 3.048q-.261 1.306-.436 3.223 1.438-3.745 3.223-6.097 1.785-2.35 3.484-3.353 1.74-1 3.178-1.001 2.83 0 2.83 2.83 0 1.7-.957 6.14-.828 3.789-.828 5.008 0 1.742 1.263 1.742.87 0 2.047-1.045 1.22-1.089 3.222-3.484.523-.61 1.176-.61.566 0 .871.523.348.522.348 1.437 0 1.742-.827 2.7-1.872 2.307-4.05 3.788-2.133 1.48-4.877 1.48-2.22 0-3.353-1.262-1.132-1.306-1.132-3.745 0-1.22.61-4.354.566-2.744.566-3.789 0-.697-.48-.697-.566 0-1.61 1.48-1.002 1.438-2.09 3.833a31.3 31.3 0 0 0-1.7 5.051q-.478 2.047-1.131 2.787-.61.697-1.96.697"/><path fill="#093317" d="M72.016 27.565q.566 0 .87.566.306.566.306 1.437 0 2.09-1.263 2.482-2.613.915-5.748 1.045-.828 3.658-3.266 5.879-2.44 2.177-5.53 2.177-2.613 0-4.486-1.263-1.829-1.263-2.787-3.353t-.958-4.529q0-3.31 1.263-5.878 1.263-2.613 3.484-4.05 2.22-1.48 4.92-1.48 3.31 0 5.313 2.307 2.047 2.265 2.395 5.618 2.047-.131 4.877-.871.349-.087.61-.087m-14.283 8.97q1.393 0 2.395-1.132 1.045-1.132 1.393-3.266a6.2 6.2 0 0 1-2.09-2.395 7.3 7.3 0 0 1-.697-3.135q0-.698.131-1.394h-.218q-1.74 0-2.917 1.698-1.133 1.656-1.133 4.703 0 2.396.915 3.658.959 1.263 2.22 1.263"/><path fill="#093317" d="M52.124 22.121q1.002 0 1.437.436.48.435.48 1.132 0 1.133-.697 2.003-.654.87-2.09.915-3.44.044-6.184-.523-3.048 6.488-7.36 10.8-4.266 4.267-8.447 4.267-3.832 0-5.748-4.05-1.916-4.093-2.178-10.93-2.611 7.578-5.922 11.279-3.266 3.7-6.967 3.701-4.18 0-6.314-5.182Q0 30.743 0 21.947q0-6.401 1.132-14.065.305-2.177 1.089-3.005.827-.87 2.569-.87 1.307 0 2.003.565.74.567.74 2.09 0 .306-.087 1.176-1.305 8.927-1.306 15.198 0 5.835 1.002 9.014 1 3.18 2.7 3.179 1.523 0 3.657-3.18 2.178-3.221 4.311-9.492 2.134-6.315 3.615-15.023.348-2.004 1.262-2.744.959-.784 2.57-.784 1.35 0 1.96.61.652.566.652 1.742 0 .696-.087 1.088a83.7 83.7 0 0 0-1.219 14.196q0 4.834.305 7.708.348 2.874 1.263 4.398.958 1.48 2.743 1.48 2.09 0 4.66-3.135 2.569-3.178 4.702-7.881-2.656-1.655-4.006-4.268-1.35-2.656-1.35-6.096t1.045-5.792q1.09-2.395 2.918-3.57Q40.715 3.31 42.98 3.31q2.787 0 4.398 2.003 1.655 2.003 1.655 5.487 0 4.92-2.134 10.93 2.22.39 5.225.391m-12.846-8.578q0 4.268 2.744 6.314 1.698-4.877 1.698-8.056 0-1.83-.479-2.656-.48-.87-1.306-.871-1.176 0-1.916 1.393-.74 1.35-.74 3.876"/><path fill="#093317" fill-rule="evenodd" d="M164.722 31.039c-2.151-1.81-4.004-4.288-4.687-5.261l-1.909-2.72 3.32-.131c4.758-.188 8.2.804 10.269 2.416 1.037.809 1.802 1.838 2.075 3.01.284 1.217-.004 2.458-.85 3.41-.593.667-1.312 1.137-2.134 1.365-.81.225-1.609.185-2.333.011-1.394-.335-2.693-1.21-3.751-2.1m5.115-1.402c.084-.023.217-.081.395-.282.034-.038.057-.064.03-.18-.037-.16-.204-.53-.775-.974-.742-.58-2.043-1.174-4.032-1.474a18 18 0 0 0 1.599 1.54c.909.764 1.688 1.21 2.265 1.349.262.063.422.047.518.02M180.395 23.357c.826-1.802 1.367-3.904 1.549-4.93l.452-2.552-2.308 1.178c-2.891 1.476-4.851 3.34-5.743 5.078-.439.857-.69 1.83-.464 2.75.251 1.023 1.025 1.706 2.033 1.953 1.234.302 2.235-.319 2.892-.992.656-.672 1.18-1.592 1.589-2.485m-3.866.973h-.002a.5.5 0 0 1-.14-.054l-.003-.01c-.02-.083-.034-.393.255-.958.323-.63.939-1.398 1.886-2.187-.143.394-.302.787-.474 1.162-.362.79-.739 1.398-1.091 1.76-.171.174-.294.248-.36.275-.046.018-.058.015-.071.012" clip-rule="evenodd"/></svg>